<svg width="30" height="30" viewBox="0 0 30 30" fill="none" xmlns="http://www.w3.org/2000/svg">
<g id="&#240;&#159;&#166;&#134; icon &#34;phone&#34;">
<path id="Vector" d="M15 30C23.2843 30 30 23.2843 30 15C30 6.71573 23.2843 0 15 0C6.71573 0 0 6.71573 0 15C0 23.2843 6.71573 30 15 30Z" fill="#77B3D4"/>
<path id="Vector_2" opacity="0.2" d="M13.5938 11.8594C13.4062 9.60937 11.0625 8.53125 10.9687 8.48438C10.8281 8.4375 10.7344 8.4375 10.6406 8.4375C7.92188 8.90625 7.54688 10.4531 7.5 10.5469V10.8281C10.7344 20.8594 17.4375 22.6875 19.6406 23.2969C19.8281 23.3438 19.9687 23.3906 20.0625 23.4375C20.1094 23.4375 20.1562 23.4844 20.2031 23.4844C20.2969 23.4844 20.3437 23.4844 20.4375 23.4375C20.4844 23.3906 22.0781 22.6406 22.5 20.2031C22.5 20.1094 22.5 19.9688 22.4531 19.875C22.4063 19.8281 21.5625 18.2344 19.2656 17.6719C19.125 17.625 18.9375 17.6719 18.7969 17.7656C18.0469 18.375 17.0625 19.0312 16.6406 19.125C13.7344 17.7187 12.0938 14.9531 12.0469 14.4375C12 14.1562 12.6563 13.125 13.4531 12.2813C13.5469 12.1875 13.5938 12 13.5938 11.8594Z" fill="#231F20"/>
<path id="Vector_3" d="M13.5938 10.9219C13.4062 8.67187 11.0625 7.59375 10.9687 7.54688C10.8281 7.5 10.7344 7.5 10.6406 7.5C7.92188 7.96875 7.54688 9.51562 7.5 9.60938V9.89063C10.7344 19.9219 17.4375 21.75 19.6406 22.3594C19.8281 22.4063 19.9687 22.4531 20.0625 22.5C20.1094 22.5 20.1562 22.5469 20.2031 22.5469C20.2969 22.5469 20.3437 22.5469 20.4375 22.5C20.4844 22.4531 22.0781 21.7031 22.5 19.2656C22.5 19.1719 22.5 19.0313 22.4531 18.9375C22.4063 18.8906 21.5625 17.2969 19.2656 16.7344C19.125 16.6875 18.9375 16.7344 18.7969 16.8281C18.0469 17.4375 17.0625 18.0937 16.6406 18.1875C13.7344 16.7812 12.0938 14.0156 12.0469 13.5C12 13.2187 12.6563 12.1875 13.4531 11.3438C13.5469 11.25 13.5938 11.0625 13.5938 10.9219Z" fill="white"/>
</g>
</svg>
